<svg width="35" height="38" viewBox="0 0 35 38" fill="none" xmlns="http://www.w3.org/2000/svg">
<path d="M17.2222 10.5238V12.1429C15.9845 12.1429 14.7976 12.6546 13.9224 13.5655C13.0472 14.4764 12.5556 15.7118 12.5556 17H11C11 15.2824 11.6556 13.6352 12.8224 12.4206C13.9893 11.2061 15.572 10.5238 17.2222 10.5238ZM17.2222 9.71429C14.6439 9.71429 12.5556 7.54071 12.5556 4.85714C12.5556 2.17357 14.6439 0 17.2222 0C19.8006 0 21.8889 2.17357 21.8889 4.85714C21.8889 7.54071 19.8006 9.71429 17.2222 9.71429ZM17.2222 8.09524C18.9411 8.09524 20.3333 6.64619 20.3333 4.85714C20.3333 3.0681 18.9411 1.61905 17.2222 1.61905C15.5033 1.61905 14.1111 3.0681 14.1111 4.85714C14.1111 6.64619 15.5033 8.09524 17.2222 8.09524ZM24.2222 12.9524H25V17H18.7778V12.9524H19.5556V12.1429C19.5556 11.4988 19.8014 10.881 20.239 10.4256C20.6766 9.97015 21.2701 9.71429 21.8889 9.71429C22.5077 9.71429 23.1012 9.97015 23.5388 10.4256C23.9764 10.881 24.2222 11.4988 24.2222 12.1429V12.9524ZM22.6667 12.9524V12.1429C22.6667 11.9282 22.5847 11.7223 22.4389 11.5704C22.293 11.4186 22.0952 11.3333 21.8889 11.3333C21.6826 11.3333 21.4848 11.4186 21.3389 11.5704C21.1931 11.7223 21.1111 11.9282 21.1111 12.1429V12.9524H22.6667Z" fill="#C2C2C2"/>
<path d="M4.14844 27.2246L1.32422 35H0.169922L3.42188 26.4688H4.16602L4.14844 27.2246ZM6.51562 35L3.68555 27.2246L3.66797 26.4688H4.41211L7.67578 35H6.51562ZM6.36914 31.8418V32.7676H1.57617V31.8418H6.36914ZM12.6504 33.7695V26H13.7402V35H12.7441L12.6504 33.7695ZM8.38477 31.9004V31.7773C8.38477 31.293 8.44336 30.8535 8.56055 30.459C8.68164 30.0605 8.85156 29.7188 9.07031 29.4336C9.29297 29.1484 9.55664 28.9297 9.86133 28.7773C10.1699 28.6211 10.5137 28.543 10.8926 28.543C11.291 28.543 11.6387 28.6133 11.9355 28.7539C12.2363 28.8906 12.4902 29.0918 12.6973 29.3574C12.9082 29.6191 13.0742 29.9355 13.1953 30.3066C13.3164 30.6777 13.4004 31.0977 13.4473 31.5664V32.1055C13.4043 32.5703 13.3203 32.9883 13.1953 33.3594C13.0742 33.7305 12.9082 34.0469 12.6973 34.3086C12.4902 34.5703 12.2363 34.7715 11.9355 34.9121C11.6348 35.0488 11.2832 35.1172 10.8809 35.1172C10.5098 35.1172 10.1699 35.0371 9.86133 34.877C9.55664 34.7168 9.29297 34.4922 9.07031 34.2031C8.85156 33.9141 8.68164 33.5742 8.56055 33.1836C8.44336 32.7891 8.38477 32.3613 8.38477 31.9004ZM9.47461 31.7773V31.9004C9.47461 32.2168 9.50586 32.5137 9.56836 32.791C9.63477 33.0684 9.73633 33.3125 9.87305 33.5234C10.0098 33.7344 10.1836 33.9004 10.3945 34.0215C10.6055 34.1387 10.8574 34.1973 11.1504 34.1973C11.5098 34.1973 11.8047 34.1211 12.0352 33.9688C12.2695 33.8164 12.457 33.6152 12.5977 33.3652C12.7383 33.1152 12.8477 32.8438 12.9258 32.5508V31.1387C12.8789 30.9238 12.8105 30.7168 12.7207 30.5176C12.6348 30.3145 12.5215 30.1348 12.3809 29.9785C12.2441 29.8184 12.0742 29.6914 11.8711 29.5977C11.6719 29.5039 11.4355 29.457 11.1621 29.457C10.8652 29.457 10.6094 29.5195 10.3945 29.6445C10.1836 29.7656 10.0098 29.9336 9.87305 30.1484C9.73633 30.3594 9.63477 30.6055 9.56836 30.8867C9.50586 31.1641 9.47461 31.4609 9.47461 31.7773ZM16.5059 29.9199V35H15.416V28.6602H16.4473L16.5059 29.9199ZM16.2832 31.5898L15.7793 31.5723C15.7832 31.1387 15.8398 30.7383 15.9492 30.3711C16.0586 30 16.2207 29.6777 16.4355 29.4043C16.6504 29.1309 16.918 28.9199 17.2383 28.7715C17.5586 28.6191 17.9297 28.543 18.3516 28.543C18.6484 28.543 18.9219 28.5859 19.1719 28.6719C19.4219 28.7539 19.6387 28.8848 19.8223 29.0645C20.0059 29.2441 20.1484 29.4746 20.25 29.7559C20.3516 30.0371 20.4023 30.377 20.4023 30.7754V35H19.3184V30.8281C19.3184 30.4961 19.2617 30.2305 19.1484 30.0312C19.0391 29.832 18.8828 29.6875 18.6797 29.5977C18.4766 29.5039 18.2383 29.457 17.9648 29.457C17.6445 29.457 17.377 29.5137 17.1621 29.627C16.9473 29.7402 16.7754 29.8965 16.6465 30.0957C16.5176 30.2949 16.4238 30.5234 16.3652 30.7812C16.3105 31.0352 16.2832 31.3047 16.2832 31.5898ZM20.3906 30.9922L19.6641 31.2148C19.668 30.8672 19.7246 30.5332 19.834 30.2129C19.9473 29.8926 20.1094 29.6074 20.3203 29.3574C20.5352 29.1074 20.7988 28.9102 21.1113 28.7656C21.4238 28.6172 21.7812 28.543 22.1836 28.543C22.5234 28.543 22.8242 28.5879 23.0859 28.6777C23.3516 28.7676 23.5742 28.9062 23.7539 29.0938C23.9375 29.2773 24.0762 29.5137 24.1699 29.8027C24.2637 30.0918 24.3105 30.4355 24.3105 30.834V35H23.2207V30.8223C23.2207 30.4668 23.1641 30.1914 23.0508 29.9961C22.9414 29.7969 22.7852 29.6582 22.582 29.5801C22.3828 29.498 22.1445 29.457 21.8672 29.457C21.6289 29.457 21.418 29.498 21.2344 29.5801C21.0508 29.6621 20.8965 29.7754 20.7715 29.9199C20.6465 30.0605 20.5508 30.2227 20.4844 30.4062C20.4219 30.5898 20.3906 30.7852 20.3906 30.9922ZM27.1289 28.6602V35H26.0391V28.6602H27.1289ZM25.957 26.9785C25.957 26.8027 26.0098 26.6543 26.1152 26.5332C26.2246 26.4121 26.3848 26.3516 26.5957 26.3516C26.8027 26.3516 26.9609 26.4121 27.0703 26.5332C27.1836 26.6543 27.2402 26.8027 27.2402 26.9785C27.2402 27.1465 27.1836 27.291 27.0703 27.4121C26.9609 27.5293 26.8027 27.5879 26.5957 27.5879C26.3848 27.5879 26.2246 27.5293 26.1152 27.4121C26.0098 27.291 25.957 27.1465 25.957 26.9785ZM29.9531 30.0137V35H28.8691V28.6602H29.8945L29.9531 30.0137ZM29.6953 31.5898L29.2441 31.5723C29.248 31.1387 29.3125 30.7383 29.4375 30.3711C29.5625 30 29.7383 29.6777 29.9648 29.4043C30.1914 29.1309 30.4609 28.9199 30.7734 28.7715C31.0898 28.6191 31.4395 28.543 31.8223 28.543C32.1348 28.543 32.416 28.5859 32.666 28.6719C32.916 28.7539 33.1289 28.8867 33.3047 29.0703C33.4844 29.2539 33.6211 29.4922 33.7148 29.7852C33.8086 30.0742 33.8555 30.4277 33.8555 30.8457V35H32.7656V30.834C32.7656 30.502 32.7168 30.2363 32.6191 30.0371C32.5215 29.834 32.3789 29.6875 32.1914 29.5977C32.0039 29.5039 31.7734 29.457 31.5 29.457C31.2305 29.457 30.9844 29.5137 30.7617 29.627C30.543 29.7402 30.3535 29.8965 30.1934 30.0957C30.0371 30.2949 29.9141 30.5234 29.8242 30.7812C29.7383 31.0352 29.6953 31.3047 29.6953 31.5898Z" fill="#C2C2C2"/>
</svg>
