<svg width="59" height="38" viewBox="0 0 59 38" fill="none" xmlns="http://www.w3.org/2000/svg">
<path d="M3.29883 35H1.51758L1.5293 34.0801H3.29883C3.9082 34.0801 4.41602 33.9531 4.82227 33.6992C5.22852 33.4414 5.5332 33.082 5.73633 32.6211C5.94336 32.1562 6.04688 31.6133 6.04688 30.9922V30.4707C6.04688 29.9824 5.98828 29.5488 5.87109 29.1699C5.75391 28.7871 5.58203 28.4648 5.35547 28.2031C5.12891 27.9375 4.85156 27.7363 4.52344 27.5996C4.19922 27.4629 3.82617 27.3945 3.4043 27.3945H1.48242V26.4688H3.4043C3.96289 26.4688 4.47266 26.5625 4.93359 26.75C5.39453 26.9336 5.79102 27.2012 6.12305 27.5527C6.45898 27.9004 6.7168 28.3223 6.89648 28.8184C7.07617 29.3105 7.16602 29.8652 7.16602 30.4824V30.9922C7.16602 31.6094 7.07617 32.166 6.89648 32.6621C6.7168 33.1543 6.45703 33.5742 6.11719 33.9219C5.78125 34.2695 5.375 34.5371 4.89844 34.7246C4.42578 34.9082 3.89258 35 3.29883 35ZM2.12109 26.4688V35H0.990234V26.4688H2.12109ZM12.4395 33.916V30.6523C12.4395 30.4023 12.3887 30.1855 12.2871 30.002C12.1895 29.8145 12.041 29.6699 11.8418 29.5684C11.6426 29.4668 11.3965 29.416 11.1035 29.416C10.8301 29.416 10.5898 29.4629 10.3828 29.5566C10.1797 29.6504 10.0195 29.7734 9.90234 29.9258C9.78906 30.0781 9.73242 30.2422 9.73242 30.418H8.64844C8.64844 30.1914 8.70703 29.9668 8.82422 29.7441C8.94141 29.5215 9.10938 29.3203 9.32812 29.1406C9.55078 28.957 9.81641 28.8125 10.125 28.707C10.4375 28.5977 10.7852 28.543 11.168 28.543C11.6289 28.543 12.0352 28.6211 12.3867 28.7773C12.7422 28.9336 13.0195 29.1699 13.2188 29.4863C13.4219 29.7988 13.5234 30.1914 13.5234 30.6641V33.6172C13.5234 33.8281 13.541 34.0527 13.5762 34.291C13.6152 34.5293 13.6719 34.7344 13.7461 34.9062V35H12.6152C12.5605 34.875 12.5176 34.709 12.4863 34.502C12.4551 34.291 12.4395 34.0957 12.4395 33.916ZM12.627 31.1562L12.6387 31.918H11.543C11.2344 31.918 10.959 31.9434 10.7168 31.9941C10.4746 32.041 10.2715 32.1133 10.1074 32.2109C9.94336 32.3086 9.81836 32.4316 9.73242 32.5801C9.64648 32.7246 9.60352 32.8945 9.60352 33.0898C9.60352 33.2891 9.64844 33.4707 9.73828 33.6348C9.82812 33.7988 9.96289 33.9297 10.1426 34.0273C10.3262 34.1211 10.5508 34.168 10.8164 34.168C11.1484 34.168 11.4414 34.0977 11.6953 33.957C11.9492 33.8164 12.1504 33.6445 12.2988 33.4414C12.4512 33.2383 12.5332 33.041 12.5449 32.8496L13.0078 33.3711C12.9805 33.5352 12.9062 33.7168 12.7852 33.916C12.6641 34.1152 12.502 34.3066 12.2988 34.4902C12.0996 34.6699 11.8613 34.8203 11.584 34.9414C11.3105 35.0586 11.002 35.1172 10.6582 35.1172C10.2285 35.1172 9.85156 35.0332 9.52734 34.8652C9.20703 34.6973 8.95703 34.4727 8.77734 34.1914C8.60156 33.9062 8.51367 33.5879 8.51367 33.2363C8.51367 32.8965 8.58008 32.5977 8.71289 32.3398C8.8457 32.0781 9.03711 31.8613 9.28711 31.6895C9.53711 31.5137 9.83789 31.3809 10.1895 31.291C10.541 31.2012 10.9336 31.1562 11.3672 31.1562H12.627ZM18.9199 33.3184C18.9199 33.1621 18.8848 33.0176 18.8145 32.8848C18.748 32.748 18.6094 32.625 18.3984 32.5156C18.1914 32.4023 17.8789 32.3047 17.4609 32.2227C17.1094 32.1484 16.791 32.0605 16.5059 31.959C16.2246 31.8574 15.9844 31.7344 15.7852 31.5898C15.5898 31.4453 15.4395 31.2754 15.334 31.0801C15.2285 30.8848 15.1758 30.6562 15.1758 30.3945C15.1758 30.1445 15.2305 29.9082 15.3398 29.6855C15.4531 29.4629 15.6113 29.2656 15.8145 29.0938C16.0215 28.9219 16.2695 28.7871 16.5586 28.6895C16.8477 28.5918 17.1699 28.543 17.5254 28.543C18.0332 28.543 18.4668 28.6328 18.8262 28.8125C19.1855 28.9922 19.4609 29.2324 19.6523 29.5332C19.8438 29.8301 19.9395 30.1602 19.9395 30.5234H18.8555C18.8555 30.3477 18.8027 30.1777 18.6973 30.0137C18.5957 29.8457 18.4453 29.707 18.2461 29.5977C18.0508 29.4883 17.8105 29.4336 17.5254 29.4336C17.2246 29.4336 16.9805 29.4805 16.793 29.5742C16.6094 29.6641 16.4746 29.7793 16.3887 29.9199C16.3066 30.0605 16.2656 30.209 16.2656 30.3652C16.2656 30.4824 16.2852 30.5879 16.3242 30.6816C16.3672 30.7715 16.4414 30.8555 16.5469 30.9336C16.6523 31.0078 16.8008 31.0781 16.9922 31.1445C17.1836 31.2109 17.4277 31.2773 17.7246 31.3438C18.2441 31.4609 18.6719 31.6016 19.0078 31.7656C19.3438 31.9297 19.5938 32.1309 19.7578 32.3691C19.9219 32.6074 20.0039 32.8965 20.0039 33.2363C20.0039 33.5137 19.9453 33.7676 19.8281 33.998C19.7148 34.2285 19.5488 34.4277 19.3301 34.5957C19.1152 34.7598 18.8574 34.8887 18.5566 34.9824C18.2598 35.0723 17.9258 35.1172 17.5547 35.1172C16.9961 35.1172 16.5234 35.0176 16.1367 34.8184C15.75 34.6191 15.457 34.3613 15.2578 34.0449C15.0586 33.7285 14.959 33.3945 14.959 33.043H16.0488C16.0645 33.3398 16.1504 33.5762 16.3066 33.752C16.4629 33.9238 16.6543 34.0469 16.8809 34.1211C17.1074 34.1914 17.332 34.2266 17.5547 34.2266C17.8516 34.2266 18.0996 34.1875 18.2988 34.1094C18.502 34.0312 18.6562 33.9238 18.7617 33.7871C18.8672 33.6504 18.9199 33.4941 18.9199 33.3184ZM22.5117 26V35H21.4277V26H22.5117ZM22.2539 31.5898L21.8027 31.5723C21.8066 31.1387 21.8711 30.7383 21.9961 30.3711C22.1211 30 22.2969 29.6777 22.5234 29.4043C22.75 29.1309 23.0195 28.9199 23.332 28.7715C23.6484 28.6191 23.998 28.543 24.3809 28.543C24.6934 28.543 24.9746 28.5859 25.2246 28.6719C25.4746 28.7539 25.6875 28.8867 25.8633 29.0703C26.043 29.2539 26.1797 29.4922 26.2734 29.7852C26.3672 30.0742 26.4141 30.4277 26.4141 30.8457V35H25.3242V30.834C25.3242 30.502 25.2754 30.2363 25.1777 30.0371C25.0801 29.834 24.9375 29.6875 24.75 29.5977C24.5625 29.5039 24.332 29.457 24.0586 29.457C23.7891 29.457 23.543 29.5137 23.3203 29.627C23.1016 29.7402 22.9121 29.8965 22.752 30.0957C22.5957 30.2949 22.4727 30.5234 22.3828 30.7812C22.2969 31.0352 22.2539 31.3047 22.2539 31.5898ZM28.0312 26H29.1211V33.7695L29.0273 35H28.0312V26ZM33.4043 31.7773V31.9004C33.4043 32.3613 33.3496 32.7891 33.2402 33.1836C33.1309 33.5742 32.9707 33.9141 32.7598 34.2031C32.5488 34.4922 32.291 34.7168 31.9863 34.877C31.6816 35.0371 31.332 35.1172 30.9375 35.1172C30.5352 35.1172 30.1816 35.0488 29.877 34.9121C29.5762 34.7715 29.3223 34.5703 29.1152 34.3086C28.9082 34.0469 28.7422 33.7305 28.6172 33.3594C28.4961 32.9883 28.4121 32.5703 28.3652 32.1055V31.5664C28.4121 31.0977 28.4961 30.6777 28.6172 30.3066C28.7422 29.9355 28.9082 29.6191 29.1152 29.3574C29.3223 29.0918 29.5762 28.8906 29.877 28.7539C30.1777 28.6133 30.5273 28.543 30.9258 28.543C31.3242 28.543 31.6777 28.6211 31.9863 28.7773C32.2949 28.9297 32.5527 29.1484 32.7598 29.4336C32.9707 29.7188 33.1309 30.0605 33.2402 30.459C33.3496 30.8535 33.4043 31.293 33.4043 31.7773ZM32.3145 31.9004V31.7773C32.3145 31.4609 32.2852 31.1641 32.2266 30.8867C32.168 30.6055 32.0742 30.3594 31.9453 30.1484C31.8164 29.9336 31.6465 29.7656 31.4355 29.6445C31.2246 29.5195 30.9648 29.457 30.6562 29.457C30.3828 29.457 30.1445 29.5039 29.9414 29.5977C29.7422 29.6914 29.5723 29.8184 29.4316 29.9785C29.291 30.1348 29.1758 30.3145 29.0859 30.5176C29 30.7168 28.9355 30.9238 28.8926 31.1387V32.5508C28.9551 32.8242 29.0566 33.0879 29.1973 33.3418C29.3418 33.5918 29.5332 33.7969 29.7715 33.957C30.0137 34.1172 30.3125 34.1973 30.668 34.1973C30.9609 34.1973 31.2109 34.1387 31.418 34.0215C31.6289 33.9004 31.7988 33.7344 31.9277 33.5234C32.0605 33.3125 32.1582 33.0684 32.2207 32.791C32.2832 32.5137 32.3145 32.2168 32.3145 31.9004ZM34.4883 31.9004V31.7656C34.4883 31.3086 34.5547 30.8848 34.6875 30.4941C34.8203 30.0996 35.0117 29.7578 35.2617 29.4688C35.5117 29.1758 35.8145 28.9492 36.1699 28.7891C36.5254 28.625 36.9238 28.543 37.3652 28.543C37.8105 28.543 38.2109 28.625 38.5664 28.7891C38.9258 28.9492 39.2305 29.1758 39.4805 29.4688C39.7344 29.7578 39.9277 30.0996 40.0605 30.4941C40.1934 30.8848 40.2598 31.3086 40.2598 31.7656V31.9004C40.2598 32.3574 40.1934 32.7812 40.0605 33.1719C39.9277 33.5625 39.7344 33.9043 39.4805 34.1973C39.2305 34.4863 38.9277 34.7129 38.5723 34.877C38.2207 35.0371 37.8223 35.1172 37.377 35.1172C36.9316 35.1172 36.5312 35.0371 36.1758 34.877C35.8203 34.7129 35.5156 34.4863 35.2617 34.1973C35.0117 33.9043 34.8203 33.5625 34.6875 33.1719C34.5547 32.7812 34.4883 32.3574 34.4883 31.9004ZM35.5723 31.7656V31.9004C35.5723 32.2168 35.6094 32.5156 35.6836 32.7969C35.7578 33.0742 35.8691 33.3203 36.0176 33.5352C36.1699 33.75 36.3594 33.9199 36.5859 34.0449C36.8125 34.166 37.0762 34.2266 37.377 34.2266C37.6738 34.2266 37.9336 34.166 38.1562 34.0449C38.3828 33.9199 38.5703 33.75 38.7188 33.5352C38.8672 33.3203 38.9785 33.0742 39.0527 32.7969C39.1309 32.5156 39.1699 32.2168 39.1699 31.9004V31.7656C39.1699 31.4531 39.1309 31.1582 39.0527 30.8809C38.9785 30.5996 38.8652 30.3516 38.7129 30.1367C38.5645 29.918 38.377 29.7461 38.1504 29.6211C37.9277 29.4961 37.666 29.4336 37.3652 29.4336C37.0684 29.4336 36.8066 29.4961 36.5801 29.6211C36.3574 29.7461 36.1699 29.918 36.0176 30.1367C35.8691 30.3516 35.7578 30.5996 35.6836 30.8809C35.6094 31.1582 35.5723 31.4531 35.5723 31.7656ZM45.3574 33.916V30.6523C45.3574 30.4023 45.3066 30.1855 45.2051 30.002C45.1074 29.8145 44.959 29.6699 44.7598 29.5684C44.5605 29.4668 44.3145 29.416 44.0215 29.416C43.748 29.416 43.5078 29.4629 43.3008 29.5566C43.0977 29.6504 42.9375 29.7734 42.8203 29.9258C42.707 30.0781 42.6504 30.2422 42.6504 30.418H41.5664C41.5664 30.1914 41.625 29.9668 41.7422 29.7441C41.8594 29.5215 42.0273 29.3203 42.2461 29.1406C42.4688 28.957 42.7344 28.8125 43.043 28.707C43.3555 28.5977 43.7031 28.543 44.0859 28.543C44.5469 28.543 44.9531 28.6211 45.3047 28.7773C45.6602 28.9336 45.9375 29.1699 46.1367 29.4863C46.3398 29.7988 46.4414 30.1914 46.4414 30.6641V33.6172C46.4414 33.8281 46.459 34.0527 46.4941 34.291C46.5332 34.5293 46.5898 34.7344 46.6641 34.9062V35H45.5332C45.4785 34.875 45.4355 34.709 45.4043 34.502C45.373 34.291 45.3574 34.0957 45.3574 33.916ZM45.5449 31.1562L45.5566 31.918H44.4609C44.1523 31.918 43.877 31.9434 43.6348 31.9941C43.3926 32.041 43.1895 32.1133 43.0254 32.2109C42.8613 32.3086 42.7363 32.4316 42.6504 32.5801C42.5645 32.7246 42.5215 32.8945 42.5215 33.0898C42.5215 33.2891 42.5664 33.4707 42.6562 33.6348C42.7461 33.7988 42.8809 33.9297 43.0605 34.0273C43.2441 34.1211 43.4688 34.168 43.7344 34.168C44.0664 34.168 44.3594 34.0977 44.6133 33.957C44.8672 33.8164 45.0684 33.6445 45.2168 33.4414C45.3691 33.2383 45.4512 33.041 45.4629 32.8496L45.9258 33.3711C45.8984 33.5352 45.8242 33.7168 45.7031 33.916C45.582 34.1152 45.4199 34.3066 45.2168 34.4902C45.0176 34.6699 44.7793 34.8203 44.502 34.9414C44.2285 35.0586 43.9199 35.1172 43.5762 35.1172C43.1465 35.1172 42.7695 35.0332 42.4453 34.8652C42.125 34.6973 41.875 34.4727 41.6953 34.1914C41.5195 33.9062 41.4316 33.5879 41.4316 33.2363C41.4316 32.8965 41.498 32.5977 41.6309 32.3398C41.7637 32.0781 41.9551 31.8613 42.2051 31.6895C42.4551 31.5137 42.7559 31.3809 43.1074 31.291C43.459 31.2012 43.8516 31.1562 44.2852 31.1562H45.5449ZM49.2305 29.6562V35H48.1465V28.6602H49.2012L49.2305 29.6562ZM51.2109 28.625L51.2051 29.6328C51.1152 29.6133 51.0293 29.6016 50.9473 29.5977C50.8691 29.5898 50.7793 29.5859 50.6777 29.5859C50.4277 29.5859 50.207 29.625 50.0156 29.7031C49.8242 29.7812 49.6621 29.8906 49.5293 30.0312C49.3965 30.1719 49.291 30.3398 49.2129 30.5352C49.1387 30.7266 49.0898 30.9375 49.0664 31.168L48.7617 31.3438C48.7617 30.9609 48.7988 30.6016 48.873 30.2656C48.9512 29.9297 49.0703 29.6328 49.2305 29.375C49.3906 29.1133 49.5938 28.9102 49.8398 28.7656C50.0898 28.6172 50.3867 28.543 50.7305 28.543C50.8086 28.543 50.8984 28.5527 51 28.5723C51.1016 28.5879 51.1719 28.6055 51.2109 28.625ZM56.0918 33.7695V26H57.1816V35H56.1855L56.0918 33.7695ZM51.8262 31.9004V31.7773C51.8262 31.293 51.8848 30.8535 52.002 30.459C52.123 30.0605 52.293 29.7188 52.5117 29.4336C52.7344 29.1484 52.998 28.9297 53.3027 28.7773C53.6113 28.6211 53.9551 28.543 54.334 28.543C54.7324 28.543 55.0801 28.6133 55.377 28.7539C55.6777 28.8906 55.9316 29.0918 56.1387 29.3574C56.3496 29.6191 56.5156 29.9355 56.6367 30.3066C56.7578 30.6777 56.8418 31.0977 56.8887 31.5664V32.1055C56.8457 32.5703 56.7617 32.9883 56.6367 33.3594C56.5156 33.7305 56.3496 34.0469 56.1387 34.3086C55.9316 34.5703 55.6777 34.7715 55.377 34.9121C55.0762 35.0488 54.7246 35.1172 54.3223 35.1172C53.9512 35.1172 53.6113 35.0371 53.3027 34.877C52.998 34.7168 52.7344 34.4922 52.5117 34.2031C52.293 33.9141 52.123 33.5742 52.002 33.1836C51.8848 32.7891 51.8262 32.3613 51.8262 31.9004ZM52.916 31.7773V31.9004C52.916 32.2168 52.9473 32.5137 53.0098 32.791C53.0762 33.0684 53.1777 33.3125 53.3145 33.5234C53.4512 33.7344 53.625 33.9004 53.8359 34.0215C54.0469 34.1387 54.2988 34.1973 54.5918 34.1973C54.9512 34.1973 55.2461 34.1211 55.4766 33.9688C55.7109 33.8164 55.8984 33.6152 56.0391 33.3652C56.1797 33.1152 56.2891 32.8438 56.3672 32.5508V31.1387C56.3203 30.9238 56.252 30.7168 56.1621 30.5176C56.0762 30.3145 55.9629 30.1348 55.8223 29.9785C55.6855 29.8184 55.5156 29.6914 55.3125 29.5977C55.1133 29.5039 54.877 29.457 54.6035 29.457C54.3066 29.457 54.0508 29.5195 53.8359 29.6445C53.625 29.7656 53.4512 29.9336 53.3145 30.1484C53.1777 30.3594 53.0762 30.6055 53.0098 30.8867C52.9473 31.1641 52.916 31.4609 52.916 31.7773Z" fill="#C2C2C2"/>
<path d="M22.2143 10.9286V12.1429H24.9986L21 16.1415L21.8585 17L25.8571 13.0014V15.7857H27.0714V10.9286H22.2143ZM34.3571 11.5357H35.5714V14.5714H34.3571V11.5357ZM31.9286 8.5H33.1429V14.5714H31.9286V8.5ZM29.5 9.71429H30.7143V14.5714H29.5V9.71429Z" fill="#C2C2C2"/>
<path d="M36.7857 0H22.2143C21.8922 0 21.5834 0.127933 21.3557 0.355656C21.1279 0.583379 21 0.892237 21 1.21429V8.5H22.2143V6.67857H36.7863L36.7869 15.7857H29.5V17H36.7857C37.1076 16.9995 37.4162 16.8714 37.6438 16.6438C37.8714 16.4162 37.9995 16.1076 38 15.7857V1.21429C38 0.892237 37.8721 0.583379 37.6443 0.355656C37.4166 0.127933 37.1078 0 36.7857 0ZM27.0714 5.46429H22.2143V1.21429H27.0714V5.46429ZM28.2857 5.46429V1.21429H36.7857V5.46429H28.2857Z" fill="#C2C2C2"/>
</svg>
