<svg width="45" height="42" viewBox="0 0 45 42" fill="none" xmlns="http://www.w3.org/2000/svg">
<path d="M0.990234 30.4688H3.81445C4.45508 30.4688 4.99609 30.5664 5.4375 30.7617C5.88281 30.957 6.2207 31.2461 6.45117 31.6289C6.68555 32.0078 6.80273 32.4746 6.80273 33.0293C6.80273 33.4199 6.72266 33.7773 6.5625 34.1016C6.40625 34.4219 6.17969 34.6953 5.88281 34.9219C5.58984 35.1445 5.23828 35.3105 4.82812 35.4199L4.51172 35.543H1.85742L1.8457 34.623H3.84961C4.25586 34.623 4.59375 34.5527 4.86328 34.4121C5.13281 34.2676 5.33594 34.0742 5.47266 33.832C5.60938 33.5898 5.67773 33.3223 5.67773 33.0293C5.67773 32.7012 5.61328 32.4141 5.48438 32.168C5.35547 31.9219 5.15234 31.7324 4.875 31.5996C4.60156 31.4629 4.24805 31.3945 3.81445 31.3945H2.12109V39H0.990234V30.4688ZM5.97656 39L3.90234 35.1328L5.08008 35.127L7.18359 38.9297V39H5.97656ZM10.8516 39.1172C10.4102 39.1172 10.0098 39.043 9.65039 38.8945C9.29492 38.7422 8.98828 38.5293 8.73047 38.2559C8.47656 37.9824 8.28125 37.6582 8.14453 37.2832C8.00781 36.9082 7.93945 36.498 7.93945 36.0527V35.8066C7.93945 35.291 8.01562 34.832 8.16797 34.4297C8.32031 34.0234 8.52734 33.6797 8.78906 33.3984C9.05078 33.1172 9.34766 32.9043 9.67969 32.7598C10.0117 32.6152 10.3555 32.543 10.7109 32.543C11.1641 32.543 11.5547 32.6211 11.8828 32.7773C12.2148 32.9336 12.4863 33.1523 12.6973 33.4336C12.9082 33.7109 13.0645 34.0391 13.166 34.418C13.2676 34.793 13.3184 35.2031 13.3184 35.6484V36.1348H8.58398V35.25H12.2344V35.168C12.2188 34.8867 12.1602 34.6133 12.0586 34.3477C11.9609 34.082 11.8047 33.8633 11.5898 33.6914C11.375 33.5195 11.082 33.4336 10.7109 33.4336C10.4648 33.4336 10.2383 33.4863 10.0312 33.5918C9.82422 33.6934 9.64648 33.8457 9.49805 34.0488C9.34961 34.252 9.23438 34.5 9.15234 34.793C9.07031 35.0859 9.0293 35.4238 9.0293 35.8066V36.0527C9.0293 36.3535 9.07031 36.6367 9.15234 36.9023C9.23828 37.1641 9.36133 37.3945 9.52148 37.5938C9.68555 37.793 9.88281 37.9492 10.1133 38.0625C10.3477 38.1758 10.6133 38.2324 10.9102 38.2324C11.293 38.2324 11.6172 38.1543 11.8828 37.998C12.1484 37.8418 12.3809 37.6328 12.5801 37.3711L13.2363 37.8926C13.0996 38.0996 12.9258 38.2969 12.7148 38.4844C12.5039 38.6719 12.2441 38.8242 11.9355 38.9414C11.6309 39.0586 11.2695 39.1172 10.8516 39.1172ZM18.6914 32.6602H19.6758V38.8652C19.6758 39.4238 19.5625 39.9004 19.3359 40.2949C19.1094 40.6895 18.793 40.9883 18.3867 41.1914C17.9844 41.3984 17.5195 41.502 16.9922 41.502C16.7734 41.502 16.5156 41.4668 16.2188 41.3965C15.9258 41.3301 15.6367 41.2148 15.3516 41.0508C15.0703 40.8906 14.834 40.6738 14.6426 40.4004L15.2109 39.7559C15.4766 40.0762 15.7539 40.2988 16.043 40.4238C16.3359 40.5488 16.625 40.6113 16.9102 40.6113C17.2539 40.6113 17.5508 40.5469 17.8008 40.418C18.0508 40.2891 18.2441 40.0977 18.3809 39.8438C18.5215 39.5938 18.5918 39.2852 18.5918 38.918V34.0547L18.6914 32.6602ZM14.3262 35.9004V35.7773C14.3262 35.293 14.3828 34.8535 14.4961 34.459C14.6133 34.0605 14.7793 33.7188 14.9941 33.4336C15.2129 33.1484 15.4766 32.9297 15.7852 32.7773C16.0938 32.6211 16.4414 32.543 16.8281 32.543C17.2266 32.543 17.5742 32.6133 17.8711 32.7539C18.1719 32.8906 18.4258 33.0918 18.6328 33.3574C18.8438 33.6191 19.0098 33.9355 19.1309 34.3066C19.252 34.6777 19.3359 35.0977 19.3828 35.5664V36.1055C19.3398 36.5703 19.2559 36.9883 19.1309 37.3594C19.0098 37.7305 18.8438 38.0469 18.6328 38.3086C18.4258 38.5703 18.1719 38.7715 17.8711 38.9121C17.5703 39.0488 17.2188 39.1172 16.8164 39.1172C16.4375 39.1172 16.0938 39.0371 15.7852 38.877C15.4805 38.7168 15.2188 38.4922 15 38.2031C14.7812 37.9141 14.6133 37.5742 14.4961 37.1836C14.3828 36.7891 14.3262 36.3613 14.3262 35.9004ZM15.4102 35.7773V35.9004C15.4102 36.2168 15.4414 36.5137 15.5039 36.791C15.5703 37.0684 15.6699 37.3125 15.8027 37.5234C15.9395 37.7344 16.1133 37.9004 16.3242 38.0215C16.5352 38.1387 16.7871 38.1973 17.0801 38.1973C17.4395 38.1973 17.7363 38.1211 17.9707 37.9688C18.2051 37.8164 18.3906 37.6152 18.5273 37.3652C18.668 37.1152 18.7773 36.8438 18.8555 36.5508V35.1387C18.8125 34.9238 18.7461 34.7168 18.6562 34.5176C18.5703 34.3145 18.457 34.1348 18.3164 33.9785C18.1797 33.8184 18.0098 33.6914 17.8066 33.5977C17.6035 33.5039 17.3652 33.457 17.0918 33.457C16.7949 33.457 16.5391 33.5195 16.3242 33.6445C16.1133 33.7656 15.9395 33.9336 15.8027 34.1484C15.6699 34.3594 15.5703 34.6055 15.5039 34.8867C15.4414 35.1641 15.4102 35.4609 15.4102 35.7773ZM22.5 32.6602V39H21.4102V32.6602H22.5ZM21.3281 30.9785C21.3281 30.8027 21.3809 30.6543 21.4863 30.5332C21.5957 30.4121 21.7559 30.3516 21.9668 30.3516C22.1738 30.3516 22.332 30.4121 22.4414 30.5332C22.5547 30.6543 22.6113 30.8027 22.6113 30.9785C22.6113 31.1465 22.5547 31.291 22.4414 31.4121C22.332 31.5293 22.1738 31.5879 21.9668 31.5879C21.7559 31.5879 21.5957 31.5293 21.4863 31.4121C21.3809 31.291 21.3281 31.1465 21.3281 30.9785ZM27.9316 37.3184C27.9316 37.1621 27.8965 37.0176 27.8262 36.8848C27.7598 36.748 27.6211 36.625 27.4102 36.5156C27.2031 36.4023 26.8906 36.3047 26.4727 36.2227C26.1211 36.1484 25.8027 36.0605 25.5176 35.959C25.2363 35.8574 24.9961 35.7344 24.7969 35.5898C24.6016 35.4453 24.4512 35.2754 24.3457 35.0801C24.2402 34.8848 24.1875 34.6562 24.1875 34.3945C24.1875 34.1445 24.2422 33.9082 24.3516 33.6855C24.4648 33.4629 24.623 33.2656 24.8262 33.0938C25.0332 32.9219 25.2812 32.7871 25.5703 32.6895C25.8594 32.5918 26.1816 32.543 26.5371 32.543C27.0449 32.543 27.4785 32.6328 27.8379 32.8125C28.1973 32.9922 28.4727 33.2324 28.6641 33.5332C28.8555 33.8301 28.9512 34.1602 28.9512 34.5234H27.8672C27.8672 34.3477 27.8145 34.1777 27.709 34.0137C27.6074 33.8457 27.457 33.707 27.2578 33.5977C27.0625 33.4883 26.8223 33.4336 26.5371 33.4336C26.2363 33.4336 25.9922 33.4805 25.8047 33.5742C25.6211 33.6641 25.4863 33.7793 25.4004 33.9199C25.3184 34.0605 25.2773 34.209 25.2773 34.3652C25.2773 34.4824 25.2969 34.5879 25.3359 34.6816C25.3789 34.7715 25.4531 34.8555 25.5586 34.9336C25.6641 35.0078 25.8125 35.0781 26.0039 35.1445C26.1953 35.2109 26.4395 35.2773 26.7363 35.3438C27.2559 35.4609 27.6836 35.6016 28.0195 35.7656C28.3555 35.9297 28.6055 36.1309 28.7695 36.3691C28.9336 36.6074 29.0156 36.8965 29.0156 37.2363C29.0156 37.5137 28.957 37.7676 28.8398 37.998C28.7266 38.2285 28.5605 38.4277 28.3418 38.5957C28.127 38.7598 27.8691 38.8887 27.5684 38.9824C27.2715 39.0723 26.9375 39.1172 26.5664 39.1172C26.0078 39.1172 25.5352 39.0176 25.1484 38.8184C24.7617 38.6191 24.4688 38.3613 24.2695 38.0449C24.0703 37.7285 23.9707 37.3945 23.9707 37.043H25.0605C25.0762 37.3398 25.1621 37.5762 25.3184 37.752C25.4746 37.9238 25.666 38.0469 25.8926 38.1211C26.1191 38.1914 26.3438 38.2266 26.5664 38.2266C26.8633 38.2266 27.1113 38.1875 27.3105 38.1094C27.5137 38.0312 27.668 37.9238 27.7734 37.7871C27.8789 37.6504 27.9316 37.4941 27.9316 37.3184ZM33.0938 32.6602V33.4922H29.666V32.6602H33.0938ZM30.8262 31.1191H31.9102V37.4297C31.9102 37.6445 31.9434 37.8066 32.0098 37.916C32.0762 38.0254 32.1621 38.0977 32.2676 38.1328C32.373 38.168 32.4863 38.1855 32.6074 38.1855C32.6973 38.1855 32.791 38.1777 32.8887 38.1621C32.9902 38.1426 33.0664 38.127 33.1172 38.1152L33.123 39C33.0371 39.0273 32.9238 39.0527 32.7832 39.0762C32.6465 39.1035 32.4805 39.1172 32.2852 39.1172C32.0195 39.1172 31.7754 39.0645 31.5527 38.959C31.3301 38.8535 31.1523 38.6777 31.0195 38.4316C30.8906 38.1816 30.8262 37.8457 30.8262 37.4238V31.1191ZM35.4492 33.6562V39H34.3652V32.6602H35.4199L35.4492 33.6562ZM37.4297 32.625L37.4238 33.6328C37.334 33.6133 37.248 33.6016 37.166 33.5977C37.0879 33.5898 36.998 33.5859 36.8965 33.5859C36.6465 33.5859 36.4258 33.625 36.2344 33.7031C36.043 33.7812 35.8809 33.8906 35.748 34.0312C35.6152 34.1719 35.5098 34.3398 35.4316 34.5352C35.3574 34.7266 35.3086 34.9375 35.2852 35.168L34.9805 35.3438C34.9805 34.9609 35.0176 34.6016 35.0918 34.2656C35.1699 33.9297 35.2891 33.6328 35.4492 33.375C35.6094 33.1133 35.8125 32.9102 36.0586 32.7656C36.3086 32.6172 36.6055 32.543 36.9492 32.543C37.0273 32.543 37.1172 32.5527 37.2188 32.5723C37.3203 32.5879 37.3906 32.6055 37.4297 32.625ZM38.0273 35.9004V35.7656C38.0273 35.3086 38.0938 34.8848 38.2266 34.4941C38.3594 34.0996 38.5508 33.7578 38.8008 33.4688C39.0508 33.1758 39.3535 32.9492 39.709 32.7891C40.0645 32.625 40.4629 32.543 40.9043 32.543C41.3496 32.543 41.75 32.625 42.1055 32.7891C42.4648 32.9492 42.7695 33.1758 43.0195 33.4688C43.2734 33.7578 43.4668 34.0996 43.5996 34.4941C43.7324 34.8848 43.7988 35.3086 43.7988 35.7656V35.9004C43.7988 36.3574 43.7324 36.7812 43.5996 37.1719C43.4668 37.5625 43.2734 37.9043 43.0195 38.1973C42.7695 38.4863 42.4668 38.7129 42.1113 38.877C41.7598 39.0371 41.3613 39.1172 40.916 39.1172C40.4707 39.1172 40.0703 39.0371 39.7148 38.877C39.3594 38.7129 39.0547 38.4863 38.8008 38.1973C38.5508 37.9043 38.3594 37.5625 38.2266 37.1719C38.0938 36.7812 38.0273 36.3574 38.0273 35.9004ZM39.1113 35.7656V35.9004C39.1113 36.2168 39.1484 36.5156 39.2227 36.7969C39.2969 37.0742 39.4082 37.3203 39.5566 37.5352C39.709 37.75 39.8984 37.9199 40.125 38.0449C40.3516 38.166 40.6152 38.2266 40.916 38.2266C41.2129 38.2266 41.4727 38.166 41.6953 38.0449C41.9219 37.9199 42.1094 37.75 42.2578 37.5352C42.4062 37.3203 42.5176 37.0742 42.5918 36.7969C42.6699 36.5156 42.709 36.2168 42.709 35.9004V35.7656C42.709 35.4531 42.6699 35.1582 42.5918 34.8809C42.5176 34.5996 42.4043 34.3516 42.252 34.1367C42.1035 33.918 41.916 33.7461 41.6895 33.6211C41.4668 33.4961 41.2051 33.4336 40.9043 33.4336C40.6074 33.4336 40.3457 33.4961 40.1191 33.6211C39.8965 33.7461 39.709 33.918 39.5566 34.1367C39.4082 34.3516 39.2969 34.5996 39.2227 34.8809C39.1484 35.1582 39.1113 35.4531 39.1113 35.7656Z" fill="#C2C2C2"/>
<path d="M22 6H32M22 12H32M22 18H32M14 7.393C14 7.393 15 8.045 15.5 9C15.5 9 17 5.25 19 4M14 18.393C14 18.393 15 19.045 15.5 20C15.5 20 17 16.25 19 15" stroke="#C2C2C2" stroke-width="1.5" stroke-linecap="round" stroke-linejoin="round"/>
</svg>
